Coordinates
version=1
nRows=6
nColumns=63
inDegrees=yes

Units are S.I. units (second, meters, Newtons, ...)
If the header above contains a line with 'inDegrees', this indicates whether rotational values are in degrees (yes) or radians (no).

endheader
time	pelvis_tilt	pelvis_list	pelvis_rotation	pelvis_tx	pelvis_ty	pelvis_tz	hip_flexion_r	hip_adduction_r	hip_rotation_r	knee_angle_r	knee_angle_r_beta	ankle_angle_r	subtalar_angle_r	mtp_angle_r	hip_flexion_l	hip_adduction_l	hip_rotation_l	knee_angle_l	knee_angle_l_beta	ankle_angle_l	subtalar_angle_l	mtp_angle_l	L5_S1_Flex_Ext	L5_S1_Lat_Bending	L5_S1_axial_rotation	L4_L5_Flex_Ext	L4_L5_Lat_Bending	L4_L5_axial_rotation	L3_L4_Flex_Ext	L3_L4_Lat_Bending	L3_L4_axial_rotation	L2_L3_Flex_Ext	L2_L3_Lat_Bending	L2_L3_axial_rotation	L1_L2_Flex_Ext	L1_L2_Lat_Bending	L1_L2_axial_rotation	L1_T12_Flex_Ext	L1_T12_Lat_Bending	L1_T12_axial_rotation	Abs_r3	Abs_r2	Abs_r1	Abs_t1	Abs_t2	neck_flexion	neck_bending	neck_rotation	arm_flex_r	arm_add_r	arm_rot_r	elbow_flex_r	pro_sup_r	wrist_flex_r	wrist_dev_r	arm_flex_l	arm_add_l	arm_rot_l	elbow_flex_l	pro_sup_l	wrist_flex_l	wrist_dev_l
      0.00000000	      7.30106974	     -1.87835845	    104.68174064	      0.23825510	      0.73749237	      0.54519682	     -3.25106571	      6.44596997	      4.87758523	      2.76531702	      0.04826389	     25.99885057	    -17.62853858	      0.00000000	     -3.25127366	     -7.24942725	     20.82409251	      0.63727703	      0.01112258	     34.29919759	    -11.54894614	      0.00000000	     -0.12949324	      1.01989623	     -2.29360846	     -0.24048189	      1.35646198	     -2.43695899	     -0.21274444	      2.47977568	     -2.43695899	     -0.14799782	      2.47977568	     -2.00690740	     -0.12024742	      2.07977238	     -1.86355687	     -0.07399244	      1.57981925	     -1.72020635	     -0.92495726	     11.53727009	    -12.75636217	      0.00000000	      0.00000000	     21.27476663	      2.76574070	      8.85690038	     10.20140331	     -8.71239900	     52.28632424	     36.39725083	     55.23793556	     -2.29306712	      6.66634429	     14.61631660	      0.67058281	     62.36068074	     25.46487655	     85.46501418	     -9.48404979	     -7.88796275
      0.01694915	      7.80218731	     -1.93575704	    105.08556310	      0.23696691	      0.73742441	      0.54632427	     -3.02438617	      6.77348156	      5.11874703	      2.26425199	      0.03951865	     26.84749667	    -17.64503390	      0.00000000	     -2.61579575	     -7.61205298	     20.74626322	      0.83492173	      0.01457213	     35.26823300	    -10.82690694	      0.00000000	     -0.12864180	      1.10087662	     -2.36490186	     -0.23890068	      1.46416591	     -2.51270823	     -0.21134561	      2.67667142	     -2.51270823	     -0.14702471	      2.67667142	     -2.06928913	     -0.11945677	      2.24490760	     -1.92148276	     -0.07350592	      1.70525789	     -1.77367640	     -0.91887548	     12.45333651	    -13.15287469	      0.00000000	      0.00000000	     21.58869995	      2.47267919	      9.32318263	     10.35557654	     -9.19707164	     54.11780824	     36.32916907	     52.15260747	     -3.02911410	      5.18130003	     16.15492349	      0.89955570	     67.37594679	     24.84358433	     86.57756266	    -12.85898055	     -8.71121565
      0.03389831	      7.94427158	     -1.92353415	    105.18972295	      0.23646597	      0.73747312	      0.54719741	     -2.90412474	      6.82986000	      5.18912452	      2.00186415	      0.03493912	     27.55609360	    -17.77068129	      0.00000000	     -2.35083948	     -7.65769666	     20.67993888	      0.92920625	      0.01621771	     35.55370901	    -10.90034926	      0.00000000	     -0.14404342	      1.12626635	     -2.37169114	     -0.26750304	      1.49793424	     -2.51992184	     -0.23664894	      2.73840399	     -2.51992184	     -0.16462723	      2.73840399	     -2.07522975	     -0.13375872	      2.29668233	     -1.92699905	     -0.08230641	      1.74458657	     -1.77876836	     -1.02888775	     12.74055015	    -13.19063463	      0.00000000	      0.00000000	     21.49944202	      2.44833961	      9.30070409	     10.30034078	     -9.26155990	     54.08176247	     36.25053985	     52.04925282	     -3.09454130	      5.03486275	     16.57795750	      0.90197428	     67.31891486	     24.94690498	     86.61668628	    -13.00376466	     -8.77737470
      0.05084746	      8.57741579	     -2.01810419	    105.67264099	      0.23560408	      0.73706611	      0.54774975	     -2.60710152	      7.38167932	      5.11436974	      1.78460733	      0.03114727	     28.14519185	    -17.59602464	      0.00000000	     -1.49029402	     -8.18171826	     18.50532442	      1.75635787	      0.03065423	     37.09349939	     -7.45336096	      0.00000000	     -0.11637781	      1.21000348	     -2.48711107	     -0.21612523	      1.60930463	     -2.64255551	     -0.19119711	      2.94200247	     -2.64255551	     -0.13300820	      2.94200247	     -2.17622219	     -0.10806844	      2.46743911	     -2.02077775	     -0.06649828	      1.87429540	     -1.86533330	     -0.83127507	     13.68780142	    -13.83256565	      0.00000000	      0.00000000	     21.63392505	      2.08905948	      9.62863369	     10.74541349	     -9.85420421	     56.89235210	     36.49163000	     46.15886334	     -3.71989039	      3.42961113	     16.75332463	      1.07709881	     67.52630545	     24.90056902	     86.62755632	    -14.61310963	     -9.26936943
      0.06779661	      8.84573341	     -2.08600196	    105.91292315	      0.23536255	      0.73674265	      0.54810732	     -2.40398019	      7.62383326	      4.87927135	      1.70400762	      0.02974054	     28.69712977	    -17.44196800	      0.00000000	     -0.88227269	     -8.37260286	     16.28851408	      2.52777777	      0.04411804	     38.09794521	     -4.74022827	      0.00000000	     -0.09866860	      1.23964672	     -2.53470312	     -0.18323746	      1.64873014	     -2.69312207	     -0.16210265	      3.01407704	     -2.69312207	     -0.11276834	      3.01407704	     -2.21786523	     -0.09162366	      2.52788760	     -2.05944629	     -0.05637924	      1.92021277	     -1.90102734	     -0.70477995	     14.02313166	    -14.09725836	      0.00000000	      0.00000000	     21.44263543	      1.83501245	      9.47100905	     10.72432743	     -9.98899103	     56.88451788	     36.68236210	     45.96328300	     -3.73490525	      3.55572737	     16.44477563	      1.06682216	     65.57431006	     25.19730484	     86.12572947	    -14.47165748	     -9.46240920
      0.08474576	      9.04357530	     -2.07742065	    106.06079343	      0.23538362	      0.73652737	      0.54841638	     -2.32232432	      7.84456422	      4.76385278	      1.62858186	      0.02842412	     29.07746935	    -17.44373194	      0.00000000	     -0.37262844	     -8.51900778	     15.26890599	      3.42757896	      0.05982254	     38.65482917	     -3.70644347	      0.00000000	     -0.10311467	      1.26078885	     -2.60637820	     -0.19149425	      1.67684917	     -2.76927684	     -0.16940708	      3.06548201	     -2.76927684	     -0.11784975	      3.06548201	     -2.28058093	     -0.09575228	      2.57100062	     -2.11768229	     -0.05891972	      1.95296193	     -1.95478365	     -0.73653775	     14.26229561	    -14.49589364	      0.00000000	      0.00000000	     21.29971279	      1.85282333	      9.65764580	     11.11337475	    -10.04917755	     57.93217207	     36.70517158	     44.25181065	     -3.69791180	      3.45173905	     15.35638934	      0.95622035	     60.15048920	     26.13674188	     85.64422565	    -12.35633713	     -8.92079724
